<svg viewBox="0 0 1000 480" xmlns="http://www.w3.org/2000/svg" font-family="Helvetica, Arial, sans-serif">
  <rect width="1000" height="480" fill="#0d1117"/>
  <text x="500" y="32" text-anchor="middle" fill="#e6edf3" font-size="20" font-weight="bold">Bank-Conflict-Free Shared Memory Without Padding: col ^ row</text>
  <text x="500" y="53" text-anchor="middle" fill="#8b949e" font-size="12">8×8 tile shown (same idea scales to 32×32, one bank per column); logical column j=3 highlighted in both grids</text>

  <!-- LEFT: naive -->
  <text x="230" y="85" text-anchor="middle" fill="#f85149" font-size="14" font-weight="bold">smem[row][col] — no swizzle</text>
  <text x="230" y="103" text-anchor="middle" fill="#8b949e" font-size="11">physical bank = col mod 8 → constant for a fixed column</text>

  <g transform="translate(70,115)">
    <!-- 8x8 grid, cell 36x36 -->
    <!-- draw all cells, highlight col index 3 -->
    <g id="left-grid">
      <!-- rows 0..7, cols 0..7 -->
    </g>
    <!-- background cells -->
    <g fill="#161b22" stroke="#21262d">
      <!-- generate via manual repetition -->
    </g>
  </g>

  <!-- Left grid manual cells -->
  <g transform="translate(70,115)" font-size="11">
    <!-- row loop unrolled: 8 rows, 8 cols, cellsize 36 -->
    <!-- helper: normal cell fill #161b22 stroke #21262d, highlighted (col==3) fill #f85149 opacity 0.85 -->
    <!-- row 0 -->
    <g>
      <rect x="0" y="0" width="36" height="36" fill="#161b22" stroke="#21262d"/>
      <rect x="36" y="0" width="36" height="36" fill="#161b22" stroke="#21262d"/>
      <rect x="72" y="0" width="36" height="36" fill="#161b22" stroke="#21262d"/>
      <rect x="108" y="0" width="36" height="36" fill="#f85149" opacity="0.85"/><text x="126" y="23" text-anchor="middle" fill="#0d1117">b3</text>
      <rect x="144" y="0" width="36" height="36" fill="#161b22" stroke="#21262d"/>
      <rect x="180" y="0" width="36" height="36" fill="#161b22" stroke="#21262d"/>
      <rect x="216" y="0" width="36" height="36" fill="#161b22" stroke="#21262d"/>
      <rect x="252" y="0" width="36" height="36" fill="#161b22" stroke="#21262d"/>
    </g>
    <g transform="translate(0,36)">
      <rect x="0" y="0" width="36" height="36" fill="#161b22" stroke="#21262d"/>
      <rect x="36" y="0" width="36" height="36" fill="#161b22" stroke="#21262d"/>
      <rect x="72" y="0" width="36" height="36" fill="#161b22" stroke="#21262d"/>
      <rect x="108" y="0" width="36" height="36" fill="#f85149" opacity="0.85"/><text x="126" y="23" text-anchor="middle" fill="#0d1117">b3</text>
      <rect x="144" y="0" width="36" height="36" fill="#161b22" stroke="#21262d"/>
      <rect x="180" y="0" width="36" height="36" fill="#161b22" stroke="#21262d"/>
      <rect x="216" y="0" width="36" height="36" fill="#161b22" stroke="#21262d"/>
      <rect x="252" y="0" width="36" height="36" fill="#161b22" stroke="#21262d"/>
    </g>
    <g transform="translate(0,72)">
      <rect x="0" y="0" width="36" height="36" fill="#161b22" stroke="#21262d"/>
      <rect x="36" y="0" width="36" height="36" fill="#161b22" stroke="#21262d"/>
      <rect x="72" y="0" width="36" height="36" fill="#161b22" stroke="#21262d"/>
      <rect x="108" y="0" width="36" height="36" fill="#f85149" opacity="0.85"/><text x="126" y="23" text-anchor="middle" fill="#0d1117">b3</text>
      <rect x="144" y="0" width="36" height="36" fill="#161b22" stroke="#21262d"/>
      <rect x="180" y="0" width="36" height="36" fill="#161b22" stroke="#21262d"/>
      <rect x="216" y="0" width="36" height="36" fill="#161b22" stroke="#21262d"/>
      <rect x="252" y="0" width="36" height="36" fill="#161b22" stroke="#21262d"/>
    </g>
    <g transform="translate(0,108)">
      <rect x="0" y="0" width="36" height="36" fill="#161b22" stroke="#21262d"/>
      <rect x="36" y="0" width="36" height="36" fill="#161b22" stroke="#21262d"/>
      <rect x="72" y="0" width="36" height="36" fill="#161b22" stroke="#21262d"/>
      <rect x="108" y="0" width="36" height="36" fill="#f85149" opacity="0.85"/><text x="126" y="23" text-anchor="middle" fill="#0d1117">b3</text>
      <rect x="144" y="0" width="36" height="36" fill="#161b22" stroke="#21262d"/>
      <rect x="180" y="0" width="36" height="36" fill="#161b22" stroke="#21262d"/>
      <rect x="216" y="0" width="36" height="36" fill="#161b22" stroke="#21262d"/>
      <rect x="252" y="0" width="36" height="36" fill="#161b22" stroke="#21262d"/>
    </g>
    <g transform="translate(0,144)">
      <rect x="0" y="0" width="36" height="36" fill="#161b22" stroke="#21262d"/>
      <rect x="36" y="0" width="36" height="36" fill="#161b22" stroke="#21262d"/>
      <rect x="72" y="0" width="36" height="36" fill="#161b22" stroke="#21262d"/>
      <rect x="108" y="0" width="36" height="36" fill="#f85149" opacity="0.85"/><text x="126" y="23" text-anchor="middle" fill="#0d1117">b3</text>
      <rect x="144" y="0" width="36" height="36" fill="#161b22" stroke="#21262d"/>
      <rect x="180" y="0" width="36" height="36" fill="#161b22" stroke="#21262d"/>
      <rect x="216" y="0" width="36" height="36" fill="#161b22" stroke="#21262d"/>
      <rect x="252" y="0" width="36" height="36" fill="#161b22" stroke="#21262d"/>
    </g>
    <g transform="translate(0,180)">
      <rect x="0" y="0" width="36" height="36" fill="#161b22" stroke="#21262d"/>
      <rect x="36" y="0" width="36" height="36" fill="#161b22" stroke="#21262d"/>
      <rect x="72" y="0" width="36" height="36" fill="#161b22" stroke="#21262d"/>
      <rect x="108" y="0" width="36" height="36" fill="#f85149" opacity="0.85"/><text x="126" y="23" text-anchor="middle" fill="#0d1117">b3</text>
      <rect x="144" y="0" width="36" height="36" fill="#161b22" stroke="#21262d"/>
      <rect x="180" y="0" width="36" height="36" fill="#161b22" stroke="#21262d"/>
      <rect x="216" y="0" width="36" height="36" fill="#161b22" stroke="#21262d"/>
      <rect x="252" y="0" width="36" height="36" fill="#161b22" stroke="#21262d"/>
    </g>
    <g transform="translate(0,216)">
      <rect x="0" y="0" width="36" height="36" fill="#161b22" stroke="#21262d"/>
      <rect x="36" y="0" width="36" height="36" fill="#161b22" stroke="#21262d"/>
      <rect x="72" y="0" width="36" height="36" fill="#161b22" stroke="#21262d"/>
      <rect x="108" y="0" width="36" height="36" fill="#f85149" opacity="0.85"/><text x="126" y="23" text-anchor="middle" fill="#0d1117">b3</text>
      <rect x="144" y="0" width="36" height="36" fill="#161b22" stroke="#21262d"/>
      <rect x="180" y="0" width="36" height="36" fill="#161b22" stroke="#21262d"/>
      <rect x="216" y="0" width="36" height="36" fill="#161b22" stroke="#21262d"/>
      <rect x="252" y="0" width="36" height="36" fill="#161b22" stroke="#21262d"/>
    </g>
    <g transform="translate(0,252)">
      <rect x="0" y="0" width="36" height="36" fill="#161b22" stroke="#21262d"/>
      <rect x="36" y="0" width="36" height="36" fill="#161b22" stroke="#21262d"/>
      <rect x="72" y="0" width="36" height="36" fill="#161b22" stroke="#21262d"/>
      <rect x="108" y="0" width="36" height="36" fill="#f85149" opacity="0.85"/><text x="126" y="23" text-anchor="middle" fill="#0d1117">b3</text>
      <rect x="144" y="0" width="36" height="36" fill="#161b22" stroke="#21262d"/>
      <rect x="180" y="0" width="36" height="36" fill="#161b22" stroke="#21262d"/>
      <rect x="216" y="0" width="36" height="36" fill="#161b22" stroke="#21262d"/>
      <rect x="252" y="0" width="36" height="36" fill="#161b22" stroke="#21262d"/>
    </g>
    <!-- row labels -->
    <g fill="#8b949e" font-size="10">
      <text x="-16" y="22">r0</text><text x="-16" y="58">r1</text><text x="-16" y="94">r2</text><text x="-16" y="130">r3</text>
      <text x="-16" y="166">r4</text><text x="-16" y="202">r5</text><text x="-16" y="238">r6</text><text x="-16" y="274">r7</text>
    </g>
  </g>
  <text x="230" y="410" text-anchor="middle" fill="#f85149" font-size="12" font-weight="bold">All 8 accesses hit bank 3 → 8-way conflict</text>

  <!-- RIGHT: swizzled -->
  <text x="770" y="85" text-anchor="middle" fill="#2ea043" font-size="14" font-weight="bold">smem[row][col ^ row] — swizzled</text>
  <text x="770" y="103" text-anchor="middle" fill="#8b949e" font-size="11">physical bank = (col ^ row) mod 8 → changes with row</text>

  <g transform="translate(610,115)" font-size="11">
    <!-- for each row, highlighted cell is at column = 3 ^ row -->
    <!-- row0: col=3 bank3 -->
    <g>
      <rect x="0" y="0" width="36" height="36" fill="#161b22" stroke="#21262d"/><rect x="36" y="0" width="36" height="36" fill="#161b22" stroke="#21262d"/><rect x="72" y="0" width="36" height="36" fill="#161b22" stroke="#21262d"/>
      <rect x="108" y="0" width="36" height="36" fill="#2ea043" opacity="0.85"/><text x="126" y="23" text-anchor="middle" fill="#0d1117">b3</text>
      <rect x="144" y="0" width="36" height="36" fill="#161b22" stroke="#21262d"/><rect x="180" y="0" width="36" height="36" fill="#161b22" stroke="#21262d"/><rect x="216" y="0" width="36" height="36" fill="#161b22" stroke="#21262d"/><rect x="252" y="0" width="36" height="36" fill="#161b22" stroke="#21262d"/>
    </g>
    <!-- row1: col=2 bank2 -->
    <g transform="translate(0,36)">
      <rect x="0" y="0" width="36" height="36" fill="#161b22" stroke="#21262d"/><rect x="36" y="0" width="36" height="36" fill="#161b22" stroke="#21262d"/>
      <rect x="72" y="0" width="36" height="36" fill="#2ea043" opacity="0.85"/><text x="90" y="23" text-anchor="middle" fill="#0d1117">b2</text>
      <rect x="108" y="0" width="36" height="36" fill="#161b22" stroke="#21262d"/><rect x="144" y="0" width="36" height="36" fill="#161b22" stroke="#21262d"/><rect x="180" y="0" width="36" height="36" fill="#161b22" stroke="#21262d"/><rect x="216" y="0" width="36" height="36" fill="#161b22" stroke="#21262d"/><rect x="252" y="0" width="36" height="36" fill="#161b22" stroke="#21262d"/>
    </g>
    <!-- row2: col=1 bank1 -->
    <g transform="translate(0,72)">
      <rect x="0" y="0" width="36" height="36" fill="#161b22" stroke="#21262d"/>
      <rect x="36" y="0" width="36" height="36" fill="#2ea043" opacity="0.85"/><text x="54" y="23" text-anchor="middle" fill="#0d1117">b1</text>
      <rect x="72" y="0" width="36" height="36" fill="#161b22" stroke="#21262d"/><rect x="108" y="0" width="36" height="36" fill="#161b22" stroke="#21262d"/><rect x="144" y="0" width="36" height="36" fill="#161b22" stroke="#21262d"/><rect x="180" y="0" width="36" height="36" fill="#161b22" stroke="#21262d"/><rect x="216" y="0" width="36" height="36" fill="#161b22" stroke="#21262d"/><rect x="252" y="0" width="36" height="36" fill="#161b22" stroke="#21262d"/>
    </g>
    <!-- row3: col=0 bank0 -->
    <g transform="translate(0,108)">
      <rect x="0" y="0" width="36" height="36" fill="#2ea043" opacity="0.85"/><text x="18" y="23" text-anchor="middle" fill="#0d1117">b0</text>
      <rect x="36" y="0" width="36" height="36" fill="#161b22" stroke="#21262d"/><rect x="72" y="0" width="36" height="36" fill="#161b22" stroke="#21262d"/><rect x="108" y="0" width="36" height="36" fill="#161b22" stroke="#21262d"/><rect x="144" y="0" width="36" height="36" fill="#161b22" stroke="#21262d"/><rect x="180" y="0" width="36" height="36" fill="#161b22" stroke="#21262d"/><rect x="216" y="0" width="36" height="36" fill="#161b22" stroke="#21262d"/><rect x="252" y="0" width="36" height="36" fill="#161b22" stroke="#21262d"/>
    </g>
    <!-- row4: col=7 bank7 -->
    <g transform="translate(0,144)">
      <rect x="0" y="0" width="36" height="36" fill="#161b22" stroke="#21262d"/><rect x="36" y="0" width="36" height="36" fill="#161b22" stroke="#21262d"/><rect x="72" y="0" width="36" height="36" fill="#161b22" stroke="#21262d"/><rect x="108" y="0" width="36" height="36" fill="#161b22" stroke="#21262d"/><rect x="144" y="0" width="36" height="36" fill="#161b22" stroke="#21262d"/><rect x="180" y="0" width="36" height="36" fill="#161b22" stroke="#21262d"/><rect x="216" y="0" width="36" height="36" fill="#161b22" stroke="#21262d"/>
      <rect x="252" y="0" width="36" height="36" fill="#2ea043" opacity="0.85"/><text x="270" y="23" text-anchor="middle" fill="#0d1117">b7</text>
    </g>
    <!-- row5: col=6 bank6 -->
    <g transform="translate(0,180)">
      <rect x="0" y="0" width="36" height="36" fill="#161b22" stroke="#21262d"/><rect x="36" y="0" width="36" height="36" fill="#161b22" stroke="#21262d"/><rect x="72" y="0" width="36" height="36" fill="#161b22" stroke="#21262d"/><rect x="108" y="0" width="36" height="36" fill="#161b22" stroke="#21262d"/><rect x="144" y="0" width="36" height="36" fill="#161b22" stroke="#21262d"/><rect x="180" y="0" width="36" height="36" fill="#161b22" stroke="#21262d"/>
      <rect x="216" y="0" width="36" height="36" fill="#2ea043" opacity="0.85"/><text x="234" y="23" text-anchor="middle" fill="#0d1117">b6</text>
      <rect x="252" y="0" width="36" height="36" fill="#161b22" stroke="#21262d"/>
    </g>
    <!-- row6: col=5 bank5 -->
    <g transform="translate(0,216)">
      <rect x="0" y="0" width="36" height="36" fill="#161b22" stroke="#21262d"/><rect x="36" y="0" width="36" height="36" fill="#161b22" stroke="#21262d"/><rect x="72" y="0" width="36" height="36" fill="#161b22" stroke="#21262d"/><rect x="108" y="0" width="36" height="36" fill="#161b22" stroke="#21262d"/><rect x="144" y="0" width="36" height="36" fill="#161b22" stroke="#21262d"/>
      <rect x="180" y="0" width="36" height="36" fill="#2ea043" opacity="0.85"/><text x="198" y="23" text-anchor="middle" fill="#0d1117">b5</text>
      <rect x="216" y="0" width="36" height="36" fill="#161b22" stroke="#21262d"/><rect x="252" y="0" width="36" height="36" fill="#161b22" stroke="#21262d"/>
    </g>
    <!-- row7: col=4 bank4 -->
    <g transform="translate(0,252)">
      <rect x="0" y="0" width="36" height="36" fill="#161b22" stroke="#21262d"/><rect x="36" y="0" width="36" height="36" fill="#161b22" stroke="#21262d"/><rect x="72" y="0" width="36" height="36" fill="#161b22" stroke="#21262d"/><rect x="108" y="0" width="36" height="36" fill="#161b22" stroke="#21262d"/>
      <rect x="144" y="0" width="36" height="36" fill="#2ea043" opacity="0.85"/><text x="162" y="23" text-anchor="middle" fill="#0d1117">b4</text>
      <rect x="180" y="0" width="36" height="36" fill="#161b22" stroke="#21262d"/><rect x="216" y="0" width="36" height="36" fill="#161b22" stroke="#21262d"/><rect x="252" y="0" width="36" height="36" fill="#161b22" stroke="#21262d"/>
    </g>
    <g fill="#8b949e" font-size="10">
      <text x="-16" y="22">r0</text><text x="-16" y="58">r1</text><text x="-16" y="94">r2</text><text x="-16" y="130">r3</text>
      <text x="-16" y="166">r4</text><text x="-16" y="202">r5</text><text x="-16" y="238">r6</text><text x="-16" y="274">r7</text>
    </g>
  </g>
  <text x="770" y="410" text-anchor="middle" fill="#2ea043" font-size="12" font-weight="bold">Every access lands on a different bank (b3,b2,b1,b0,b7,b6,b5,b4) → conflict-free</text>

  <text x="500" y="450" text-anchor="middle" fill="#8b949e" font-size="12" font-family="monospace">write: tile[row][col ^ row] = value;   read: value = tile[row][col ^ row];</text>
  <text x="500" y="470" text-anchor="middle" fill="#8b949e" font-size="11">Same [TILE][TILE] storage as the unpadded array — no wasted TILE+1'th column, unlike the padding fix from Day 5.</text>
</svg>
